<mxfile host="app.diagrams.net" modified="2024-06-07T06:17:37.772Z" agent="Mozilla/5.0 (Windows NT 10.0; Win64; x64) AppleWebKit/537.36 (KHTML, like Gecko) Chrome/125.0.0.0 Safari/537.36" etag="OCtxAutWhkLR5J9dlaJy" version="24.4.10" type="device">
  <diagram name="第 1 页" id="yFiiL7-LfT66jT9TnVMM">
    <mxGraphModel dx="1122" dy="677" grid="1" gridSize="10" guides="1" tooltips="1" connect="1" arrows="1" fold="1" page="1" pageScale="1" pageWidth="827" pageHeight="1169" math="0" shadow="0">
      <root>
        <mxCell id="0" />
        <mxCell id="1" parent="0" />
        <mxCell id="oueMrEctqxskN0xzj4u--13" style="edgeStyle=orthogonalEdgeStyle;rounded=0;orthogonalLoop=1;jettySize=auto;html=1;endArrow=classicThin;endFill=1;entryX=0.25;entryY=1;entryDx=0;entryDy=0;" edge="1" parent="1" target="oueMrEctqxskN0xzj4u--3">
          <mxGeometry relative="1" as="geometry">
            <mxPoint x="240" y="400.16" as="sourcePoint" />
            <mxPoint x="470" y="380" as="targetPoint" />
            <Array as="points">
              <mxPoint x="450" y="400" />
            </Array>
          </mxGeometry>
        </mxCell>
        <mxCell id="oueMrEctqxskN0xzj4u--14" style="edgeStyle=orthogonalEdgeStyle;rounded=0;orthogonalLoop=1;jettySize=auto;html=1;exitX=1;exitY=0.25;exitDx=0;exitDy=0;entryX=0;entryY=0.25;entryDx=0;entryDy=0;" edge="1" parent="1" source="oueMrEctqxskN0xzj4u--2" target="oueMrEctqxskN0xzj4u--3">
          <mxGeometry relative="1" as="geometry" />
        </mxCell>
        <mxCell id="oueMrEctqxskN0xzj4u--15" value="ask_move&lt;div&gt;ask_x&lt;/div&gt;&lt;div&gt;ask_y&lt;/div&gt;" style="edgeLabel;html=1;align=center;verticalAlign=middle;resizable=0;points=[];" vertex="1" connectable="0" parent="oueMrEctqxskN0xzj4u--14">
          <mxGeometry x="0.0932" y="3" relative="1" as="geometry">
            <mxPoint x="-15" as="offset" />
          </mxGeometry>
        </mxCell>
        <mxCell id="oueMrEctqxskN0xzj4u--2" value="player_move" style="rounded=0;whiteSpace=wrap;html=1;" vertex="1" parent="1">
          <mxGeometry x="200" y="200" width="120" height="160" as="geometry" />
        </mxCell>
        <mxCell id="oueMrEctqxskN0xzj4u--16" style="edgeStyle=orthogonalEdgeStyle;rounded=0;orthogonalLoop=1;jettySize=auto;html=1;exitX=0;exitY=0.5;exitDx=0;exitDy=0;" edge="1" parent="1" source="oueMrEctqxskN0xzj4u--3">
          <mxGeometry relative="1" as="geometry">
            <mxPoint x="320" y="300" as="targetPoint" />
            <Array as="points">
              <mxPoint x="420" y="300" />
              <mxPoint x="320" y="300" />
            </Array>
          </mxGeometry>
        </mxCell>
        <mxCell id="oueMrEctqxskN0xzj4u--17" value="accept_move&lt;div&gt;goto_x&lt;/div&gt;&lt;div&gt;goto_y&lt;/div&gt;" style="edgeLabel;html=1;align=center;verticalAlign=middle;resizable=0;points=[];" vertex="1" connectable="0" parent="oueMrEctqxskN0xzj4u--16">
          <mxGeometry x="0.0318" y="1" relative="1" as="geometry">
            <mxPoint x="-8" y="-1" as="offset" />
          </mxGeometry>
        </mxCell>
        <mxCell id="oueMrEctqxskN0xzj4u--3" value="interact" style="rounded=0;whiteSpace=wrap;html=1;" vertex="1" parent="1">
          <mxGeometry x="420" y="200" width="120" height="160" as="geometry" />
        </mxCell>
        <mxCell id="oueMrEctqxskN0xzj4u--4" value="" style="endArrow=none;html=1;rounded=0;exitX=0;exitY=0.25;exitDx=0;exitDy=0;endFill=0;startArrow=classic;startFill=1;" edge="1" parent="1" source="oueMrEctqxskN0xzj4u--2">
          <mxGeometry width="50" height="50" relative="1" as="geometry">
            <mxPoint x="390" y="360" as="sourcePoint" />
            <mxPoint x="120" y="240" as="targetPoint" />
          </mxGeometry>
        </mxCell>
        <mxCell id="oueMrEctqxskN0xzj4u--5" value="move" style="edgeLabel;html=1;align=center;verticalAlign=middle;resizable=0;points=[];" vertex="1" connectable="0" parent="oueMrEctqxskN0xzj4u--4">
          <mxGeometry x="0.3318" y="-1" relative="1" as="geometry">
            <mxPoint as="offset" />
          </mxGeometry>
        </mxCell>
        <mxCell id="oueMrEctqxskN0xzj4u--6" value="" style="endArrow=none;html=1;rounded=0;" edge="1" parent="1">
          <mxGeometry width="50" height="50" relative="1" as="geometry">
            <mxPoint x="240" y="440" as="sourcePoint" />
            <mxPoint x="240" y="360" as="targetPoint" />
          </mxGeometry>
        </mxCell>
        <mxCell id="oueMrEctqxskN0xzj4u--7" value="pos" style="edgeLabel;html=1;align=center;verticalAlign=middle;resizable=0;points=[];" vertex="1" connectable="0" parent="oueMrEctqxskN0xzj4u--6">
          <mxGeometry x="0.3318" y="-1" relative="1" as="geometry">
            <mxPoint as="offset" />
          </mxGeometry>
        </mxCell>
        <mxCell id="oueMrEctqxskN0xzj4u--18" value="RAM" style="shape=cylinder3;whiteSpace=wrap;html=1;boundedLbl=1;backgroundOutline=1;size=15;" vertex="1" parent="1">
          <mxGeometry x="610" y="240" width="60" height="80" as="geometry" />
        </mxCell>
        <mxCell id="oueMrEctqxskN0xzj4u--19" style="edgeStyle=orthogonalEdgeStyle;rounded=0;orthogonalLoop=1;jettySize=auto;html=1;exitX=1.003;exitY=0.421;exitDx=0;exitDy=0;entryX=0;entryY=0;entryDx=0;entryDy=27.5;entryPerimeter=0;exitPerimeter=0;" edge="1" parent="1" source="oueMrEctqxskN0xzj4u--3" target="oueMrEctqxskN0xzj4u--18">
          <mxGeometry relative="1" as="geometry" />
        </mxCell>
        <mxCell id="oueMrEctqxskN0xzj4u--20" value="addr" style="edgeLabel;html=1;align=center;verticalAlign=middle;resizable=0;points=[];" vertex="1" connectable="0" parent="oueMrEctqxskN0xzj4u--19">
          <mxGeometry x="-0.2391" y="1" relative="1" as="geometry">
            <mxPoint as="offset" />
          </mxGeometry>
        </mxCell>
        <mxCell id="oueMrEctqxskN0xzj4u--21" style="edgeStyle=orthogonalEdgeStyle;rounded=0;orthogonalLoop=1;jettySize=auto;html=1;exitX=0;exitY=0;exitDx=0;exitDy=52.5;exitPerimeter=0;entryX=1.01;entryY=0.583;entryDx=0;entryDy=0;entryPerimeter=0;" edge="1" parent="1" source="oueMrEctqxskN0xzj4u--18" target="oueMrEctqxskN0xzj4u--3">
          <mxGeometry relative="1" as="geometry" />
        </mxCell>
        <mxCell id="oueMrEctqxskN0xzj4u--22" value="data" style="edgeLabel;html=1;align=center;verticalAlign=middle;resizable=0;points=[];" vertex="1" connectable="0" parent="oueMrEctqxskN0xzj4u--21">
          <mxGeometry x="-0.0576" y="3" relative="1" as="geometry">
            <mxPoint as="offset" />
          </mxGeometry>
        </mxCell>
      </root>
    </mxGraphModel>
  </diagram>
</mxfile>
